<?xml version="1.0" encoding="utf-8"?>
<!-- Generator: Adobe Illustrator 19.0.0, SVG Export Plug-In . SVG Version: 6.00 Build 0)  -->
<svg version="1.1" id="Camada_1" xmlns="http://www.w3.org/2000/svg" xmlns:xlink="http://www.w3.org/1999/xlink" x="0px" y="0px"
	 viewBox="-165 155.6 627.9 251.4" style="enable-background:new -165 155.6 627.9 251.4;" xml:space="preserve">
<style type="text/css">
	.st0{enable-background:new    ;}
	.st1{fill:#FFFFFF;}
	.st2{fill:#00A4FF;}
	.st3{fill:#00E6FF;}
</style>
<g id="XMLID_2_">
	<g class="st0">
		<path class="st1" d="M91.4,291.6v42.6c0,2.5-0.7,4.5-2.1,5.8c-1.4,1.4-3.3,2-5.8,2c-2.4,0-4.3-0.7-5.7-2.1
			c-1.4-1.4-2.1-3.3-2.1-5.7v-41.8c0-6.8-1.3-11.7-3.8-14.9c-2.5-3.2-6.5-4.8-11.9-4.8c-6.3,0-11.4,2.1-15.3,6.2
			c-3.8,4.2-5.8,9.7-5.8,16.7v38.5c0,2.4-0.7,4.3-2.1,5.7c-1.4,1.4-3.3,2.1-5.7,2.1c-2.4,0-4.3-0.7-5.8-2.1
			c-1.5-1.4-2.2-3.3-2.2-5.7v-66.7c0-2.3,0.8-4.2,2.3-5.7c1.5-1.5,3.4-2.2,5.7-2.2c2.3,0,4.1,0.7,5.4,2.1c1.3,1.4,2,3.3,2,5.6v6.7
			c2.5-4.8,6-8.5,10.4-11c4.5-2.5,9.5-3.8,15.1-3.8C82.3,259.3,91.4,270,91.4,291.6z"/>
	</g>
	<g class="st0">
		<path class="st1" d="M169.6,322.9c0.9,1.2,1.4,2.7,1.4,4.6c0,3.2-1.9,5.8-5.6,8c-3.6,2.2-7.6,3.9-11.9,5.1
			c-4.3,1.2-8.4,1.8-12.4,1.8c-12,0-21.5-3.7-28.5-11.1c-7-7.4-10.4-17.5-10.4-30.2c0-8.2,1.5-15.5,4.6-21.8
			c3.1-6.3,7.4-11.3,12.9-14.7c5.6-3.5,11.9-5.2,18.9-5.2c10.2,0,18.2,3.4,24.1,10.3c5.9,6.9,8.9,16.2,8.9,27.9
			c0,4.4-1.9,6.6-5.6,6.6h-48.1c1,16.9,8.8,25.4,23.2,25.4c3.8,0,7.2-0.5,10-1.6c2.8-1.1,5.8-2.5,8.9-4.3c0.3-0.2,1.2-0.7,2.6-1.4
			c1.4-0.7,2.6-1.1,3.5-1.1C167.4,321.1,168.6,321.7,169.6,322.9z M124.4,277.5c-3.6,4-5.8,9.7-6.5,17H158
			c-0.3-7.4-2.1-13.1-5.4-17.1c-3.3-4-7.9-6-13.8-6C132.9,271.4,128,273.4,124.4,277.5z"/>
	</g>
	<g class="st0">
		<path class="st1" d="M254.7,334.5c0,2.1-0.7,3.9-2.1,5.3c-1.4,1.5-3.1,2.2-5.1,2.2c-2,0-3.8-0.9-5.4-2.8l-23.8-28.2l-23.7,28.2
			c-1.7,1.9-3.5,2.8-5.4,2.8c-2,0-3.7-0.8-5.1-2.3c-1.4-1.5-2.1-3.3-2.1-5.4c0-2.1,0.7-3.9,2.2-5.6l24.6-28.5l-23.4-27.4
			c-1.6-1.9-2.3-3.7-2.3-5.6c0-2.1,0.7-3.9,2.2-5.3c1.5-1.5,3.1-2.2,5-2.2c2,0,3.8,0.9,5.4,2.8l22.6,26.9l22.6-26.9
			c1.7-1.9,3.5-2.8,5.6-2.8c1.9,0,3.5,0.7,5,2.2c1.5,1.5,2.2,3.3,2.2,5.3c0,2.1-0.8,3.9-2.3,5.6l-23.4,27.4l24.4,28.5
			C253.9,330.4,254.7,332.3,254.7,334.5z"/>
	</g>
	<g class="st0">
		<path class="st1" d="M314.6,331.3c1,1,1.5,2.5,1.5,4.3c0,2.2-0.8,3.9-2.4,5c-1.6,1.1-4,1.6-7.1,1.4l-4.2-0.3
			c-8.4-0.7-14.7-3.4-18.8-8.1c-4.2-4.8-6.2-11.8-6.2-21.1V274H268c-4.6,0-6.9-2.1-6.9-6.4c0-2,0.6-3.5,1.8-4.7
			c1.2-1.1,2.9-1.7,5.1-1.7h9.3v-16.9c0-2.5,0.7-4.5,2.1-5.9c1.4-1.4,3.3-2.1,5.7-2.1c2.4,0,4.3,0.7,5.8,2.1
			c1.5,1.4,2.2,3.4,2.2,5.9v16.9h15.4c2.2,0,3.9,0.6,5.1,1.7c1.2,1.1,1.8,2.7,1.8,4.7c0,2.1-0.6,3.7-1.8,4.8
			c-1.2,1.1-2.9,1.6-5.1,1.6H293v39.7c0,5.1,1,8.9,3,11.3c2,2.4,5.1,3.8,9.3,4.1l4.4,0.3C312,329.6,313.6,330.3,314.6,331.3z"/>
		<path class="st1" d="M329.7,340.1c-1.5-1.3-2.3-3.3-2.3-5.9V232.9c0-2.6,0.8-4.6,2.3-6c1.5-1.4,3.4-2,5.7-2c2.3,0,4.2,0.7,5.6,2
			c1.5,1.4,2.2,3.4,2.2,6v101.3c0,2.6-0.7,4.6-2.2,5.9c-1.5,1.3-3.3,2-5.6,2C333.1,342,331.2,341.4,329.7,340.1z"/>
		<path class="st1" d="M421.8,260.9c1.2-0.8,2.5-1.1,3.8-1.1c2,0,3.7,0.7,5.2,2.1c1.5,1.4,2.3,3.1,2.3,5.1c0,1.1-0.2,2.1-0.6,3.1
			l-43.3,96.7c-0.6,1.5-1.5,2.7-2.7,3.5c-1.2,0.8-2.5,1.2-3.8,1.2c-1.9,0-3.6-0.7-5.1-2c-1.5-1.3-2.3-2.9-2.3-4.9
			c0-0.9,0.3-2,0.8-3.3l10.7-24.1l-30-67.2c-0.4-0.9-0.6-1.9-0.6-2.9c0-2.1,0.8-3.8,2.5-5.2c1.7-1.4,3.5-2.1,5.6-2.1
			c3.1,0,5.3,1.5,6.7,4.6l24.1,56.4l24-56.2C419.7,262.9,420.7,261.7,421.8,260.9z"/>
	</g>
	<polygon id="XMLID_43_" class="st2" points="-75.1,350.8 -127.2,350.8 -127.2,205 -75.1,205 -75.1,225.2 	"/>
	<polyline id="XMLID_20_" class="st1" points="-64.4,379 -2.3,350.5 -2.3,204.8 -64.8,176.3 -64.8,379 	"/>
	<polygon id="XMLID_21_" class="st3" points="-127.2,205 -75.1,235.1 -75.1,321.2 -127.2,350.8 	"/>
</g>
</svg>
